<?xml version="1.0" encoding="UTF-8" standalone="no"?>
<!-- Created with Inkscape (http://www.inkscape.org/) -->

<svg
   width="200.47501mm"
   height="199.41667mm"
   viewBox="0 0 200.47501 199.41667"
   version="1.1"
   id="svg1"
   inkscape:export-filename="m.svg"
   inkscape:export-xdpi="12.737149"
   inkscape:export-ydpi="12.737149"
   xmlns:inkscape="http://www.inkscape.org/namespaces/inkscape"
   xmlns:sodipodi="http://sodipodi.sourceforge.net/DTD/sodipodi-0.dtd"
   xmlns="http://www.w3.org/2000/svg"
   xmlns:svg="http://www.w3.org/2000/svg">
  <sodipodi:namedview
     id="namedview1"
     pagecolor="#505050"
     bordercolor="#eeeeee"
     borderopacity="1"
     inkscape:showpageshadow="0"
     inkscape:pageopacity="0"
     inkscape:pagecheckerboard="0"
     inkscape:deskcolor="#505050"
     inkscape:document-units="mm"
     showguides="false" />
  <defs
     id="defs1" />
  <g
     inkscape:label="Layer 1"
     inkscape:groupmode="layer"
     id="layer1"
     transform="translate(0.22500085,-0.83333231)">
    <rect
       style="display:inline;opacity:0.748219;fill:#ffffff;fill-opacity:1;stroke:#1361ff;stroke-width:6.55705;stroke-linecap:round;stroke-linejoin:round;stroke-dasharray:none;stroke-opacity:1;paint-order:normal"
       id="rect4"
       width="193.91795"
       height="192.85962"
       x="3.0535243"
       y="4.1118574" />
    <g
       id="text9"
       style="font-size:12.7px;font-family:'MS Gothic';-inkscape-font-specification:'MS Gothic';opacity:0.748219;stroke-width:0;stroke-linecap:round;stroke-linejoin:round"
       aria-label="| fruits | price | color  |&#10;|--------|-------|--------|&#10;| apple  | 200   | red    |&#10;| grape  | 1200  | purple |&#10;| banana | 160   | yellow |&#10;| melon  | 2000  | green  |">
      <path
         d="M 17.958593,93.331764 V 105.98215 H 16.966406 V 93.331764 Z m 12.303125,4.01836 h 2.033984 v 0.79375 h -2.033984 v 6.002736 H 29.26953 v -3.02617 -2.976566 h -1.686718 v -0.79375 h 1.686718 v -1.240235 q 0,-1.637109 1.835547,-1.637109 1.091407,0 1.5875,0.248047 v 0.992187 q -0.446484,-0.248047 -1.637109,-0.297656 -0.79375,-0.04961 -0.79375,0.644922 z m 5.407421,1.438672 q 1.091406,-1.686719 2.678906,-1.438672 v 1.190625 q -1.835546,-0.347266 -2.678906,1.934761 v 3.6711 h -0.992187 v -6.796486 h 0.992187 z m 8.532813,4.365624 q -0.79375,0.99219 -2.033984,0.99219 -0.84336,0 -1.289844,-0.44649 -0.496094,-0.49609 -0.496094,-1.24023 v -5.109766 h 0.992188 v 4.861716 q 0,0.59531 0.248047,0.84336 0.248047,0.24805 0.843359,0.24805 0.694531,0 1.190625,-0.4961 0.545703,-0.5457 0.545703,-1.38906 v -4.067966 h 0.992188 v 6.796486 h -0.992188 z m 5.457032,0.99219 h -0.992188 v -6.796486 h 0.992188 z m 0,-9.67383 v 1.289844 H 48.666796 V 94.47278 Z m 4.812108,3.671094 h -1.5875 v -0.79375 h 1.5875 v -2.182813 h 0.992187 v 2.182813 h 2.232422 v 0.79375 h -2.232422 v 4.514456 q 0,0.5457 0.79375,0.5457 0.843359,0 1.736328,-0.39688 v 1.0418 q -1.240234,0.29766 -1.885156,0.29766 -1.637109,0 -1.637109,-1.28985 z m 8.582424,1.240234 q -0.04961,-0.545703 -0.347266,-0.843359 -0.297656,-0.297657 -0.79375,-0.297657 -0.644922,0 -0.892969,0.248047 -0.297656,0.297657 -0.297656,0.644922 0,0.248047 0.248047,0.496094 0.347266,0.347266 1.488281,0.744145 0.892969,0.29765 1.289844,0.69453 0.446484,0.44648 0.446484,1.19062 0,0.69453 -0.496093,1.19063 -0.694532,0.69453 -1.785938,0.69453 -1.190625,0 -1.785937,-0.59531 -0.644922,-0.64493 -0.595313,-2.03399 h 0.992188 q 0,1.09141 0.297656,1.38906 0.347266,0.34727 1.041797,0.34727 0.694531,0 1.041797,-0.34727 0.297656,-0.29765 0.297656,-0.69453 0,-0.29765 -0.297656,-0.59531 -0.297657,-0.29766 -1.141016,-0.59531 -1.240234,-0.44649 -1.637109,-0.84336 -0.446485,-0.446486 -0.446485,-1.091408 0,-0.644922 0.545703,-1.190625 0.545704,-0.545703 1.686719,-0.545703 0.992188,0 1.5875,0.595312 0.595313,0.595313 0.545703,1.438672 z M 75.108591,93.331764 V 105.98215 H 74.116403 V 93.331764 Z m 10.666016,5.109766 q 0.694531,-1.091406 1.785938,-1.091406 0.843359,0 1.438672,0.595312 0.892968,0.892969 0.892968,2.827734 0,1.78594 -0.892968,2.67891 -0.694532,0.69453 -1.488282,0.69453 -1.141015,0 -1.736328,-0.99219 v 2.72852 H 84.78242 v -8.532816 h 0.992187 z m 1.63711,-0.248047 q -0.496094,0 -1.041797,0.545703 -0.595313,0.595313 -0.595313,2.033984 0,1.38906 0.694531,2.08359 0.396875,0.39688 0.892969,0.39688 0.496094,0 0.892969,-0.39688 0.545703,-0.5457 0.545703,-2.1332 0,-1.587499 -0.545703,-2.133202 -0.396875,-0.396875 -0.843359,-0.396875 z m 5.40742,0.595313 q 1.091406,-1.686719 2.678906,-1.438672 v 1.190625 q -1.835547,-0.347266 -2.678906,1.934761 v 3.6711 h -0.992188 v -6.796486 h 0.992188 z m 7.639843,5.357814 h -0.992188 v -6.796486 h 0.992188 z m 0,-9.67383 v 1.289844 H 99.466792 V 94.47278 Z m 7.19336,5.208984 q -0.0992,-0.79375 -0.44648,-1.141015 -0.29766,-0.297657 -0.74414,-0.297657 -0.5457,0 -0.99219,0.446485 -0.59531,0.595312 -0.59531,2.232423 0,1.33945 0.5457,1.88515 0.44649,0.44649 0.99219,0.44649 0.49609,0 0.89297,-0.39688 0.49609,-0.49609 0.44648,-1.5875 h 1.14102 q 0.0496,1.38907 -0.74414,2.18282 -0.69453,0.69453 -1.73633,0.69453 -1.0418,0 -1.83555,-0.79375 -0.84336,-0.84336 -0.84336,-2.43086 0,-1.835548 0.94258,-2.778126 0.79375,-0.79375 1.78594,-0.79375 0.99219,0 1.5875,0.595312 0.64492,0.644922 0.69453,1.736328 z m 7.59024,2.133206 q -0.14883,1.0914 -0.74414,1.68672 -0.64493,0.64492 -1.63711,0.64492 -1.09141,0 -1.73633,-0.64492 -0.94258,-0.94258 -0.94258,-2.72852 0,-1.835546 0.84336,-2.678906 0.74414,-0.74414 1.78594,-0.74414 0.84336,0 1.53789,0.595312 0.89297,0.744141 0.84336,2.827734 h -3.91914 q 0,1.63711 0.59531,2.08359 0.34727,0.34727 0.99219,0.34727 0.5457,0 0.89297,-0.34727 0.29765,-0.29765 0.34726,-1.04179 z m -1.19063,-1.835549 q 0.0496,-0.992188 -0.44648,-1.438672 -0.44649,-0.396875 -0.89297,-0.347266 -0.49609,0.04961 -0.94258,0.496094 -0.39687,0.396875 -0.49609,1.289844 z m 11.85664,-6.647657 V 105.98215 H 124.9164 V 93.331764 Z m 13.49375,6.35 q -0.0992,-0.79375 -0.44648,-1.141015 -0.29766,-0.297657 -0.74414,-0.297657 -0.5457,0 -0.99219,0.446485 -0.59531,0.595312 -0.59531,2.232423 0,1.33945 0.5457,1.88515 0.44649,0.44649 0.99219,0.44649 0.49609,0 0.89297,-0.39688 0.49609,-0.49609 0.44648,-1.5875 h 1.14102 q 0.0496,1.38907 -0.74414,2.18282 -0.69453,0.69453 -1.73633,0.69453 -1.0418,0 -1.83555,-0.79375 -0.84336,-0.84336 -0.84336,-2.43086 0,-1.835548 0.94258,-2.778126 0.79375,-0.79375 1.78594,-0.79375 0.99219,0 1.5875,0.595312 0.64492,0.644922 0.69453,1.736328 z m 3.175,-1.53789 q 0.79375,-0.79375 1.88516,-0.79375 1.0418,0 1.83555,0.79375 0.79375,0.79375 0.79375,2.629296 0,1.78594 -0.79375,2.57969 -0.79375,0.79375 -1.83555,0.79375 -1.09141,0 -1.88516,-0.79375 -0.79375,-0.79375 -0.79375,-2.57969 0,-1.835546 0.79375,-2.629296 z m 1.88516,0.09922 q -0.59531,0 -1.0418,0.446485 -0.5457,0.545703 -0.5457,2.083591 0,1.48828 0.5457,2.03398 0.44649,0.44649 1.0418,0.44649 0.5457,0 0.99219,-0.44649 0.5457,-0.5457 0.5457,-2.03398 0,-1.537888 -0.5457,-2.083591 -0.44649,-0.446485 -0.99219,-0.446485 z m 6.84608,5.903516 h -0.99218 v -9.673828 h 0.99218 z m 3.96876,-6.002734 q 0.79375,-0.79375 1.88516,-0.79375 1.04179,0 1.83554,0.79375 0.79375,0.79375 0.79375,2.629294 0,1.78594 -0.79375,2.57969 -0.79375,0.79375 -1.83554,0.79375 -1.09141,0 -1.88516,-0.79375 -0.79375,-0.79375 -0.79375,-2.57969 0,-1.835544 0.79375,-2.629294 z m 1.88516,0.09922 q -0.59532,0 -1.0418,0.446485 -0.5457,0.545703 -0.5457,2.083589 0,1.48828 0.5457,2.03398 0.44648,0.44649 1.0418,0.44649 0.5457,0 0.99218,-0.44649 0.54571,-0.5457 0.54571,-2.03398 0,-1.537886 -0.54571,-2.083589 -0.44648,-0.446485 -0.99218,-0.446485 z m 5.50664,0.545704 q 1.09141,-1.686719 2.67891,-1.438672 v 1.190625 q -1.83555,-0.347266 -2.67891,1.934757 v 3.6711 h -0.99218 v -6.796482 h 0.99218 z m 20.38944,-5.457032 V 105.98215 H 182.0664 V 93.331764 Z"
         id="path21" />
      <path
         d="m 17.958593,109.20676 v 12.65039 h -0.992187 v -12.65039 z m 8.632031,5.95313 v 0.79375 h -5.655468 v -0.79375 z m 6.35,0 v 0.79375 h -5.655469 v -0.79375 z m 6.35,0 v 0.79375 h -5.655469 v -0.79375 z m 6.35,0 v 0.79375 h -5.655469 v -0.79375 z m 6.35,0 v 0.79375 h -5.655468 v -0.79375 z m 6.349999,0 v 0.79375 h -5.655469 v -0.79375 z m 6.350002,0 v 0.79375 h -5.655469 v -0.79375 z m 6.349999,0 v 0.79375 h -5.655469 v -0.79375 z m 4.067967,-5.95313 v 12.65039 h -0.992188 v -12.65039 z m 8.632033,5.95313 v 0.79375 h -5.655468 v -0.79375 z m 6.349999,0 v 0.79375 h -5.655469 v -0.79375 z m 6.349998,0 v 0.79375 h -5.655468 v -0.79375 z m 6.349999,0 v 0.79375 h -5.655469 v -0.79375 z m 6.35001,0 v 0.79375 h -5.65547 v -0.79375 z m 6.34999,0 v 0.79375 h -5.65546 v -0.79375 z m 6.35,0 v 0.79375 h -5.65547 v -0.79375 z m 4.06797,-5.95313 v 12.65039 h -0.99219 v -12.65039 z m 8.63203,5.95313 v 0.79375 h -5.65547 v -0.79375 z m 6.35001,0 v 0.79375 h -5.65547 v -0.79375 z m 6.34999,0 v 0.79375 h -5.65546 v -0.79375 z m 6.35,0 v 0.79375 h -5.65547 v -0.79375 z m 6.35,0 v 0.79375 h -5.65547 v -0.79375 z m 6.35001,0 v 0.79375 h -5.65547 v -0.79375 z m 6.34999,0 v 0.79375 h -5.65547 v -0.79375 z m 6.35,0 v 0.79375 h -5.65546 v -0.79375 z m 4.06796,-5.95313 v 12.65039 h -0.99218 v -12.65039 z"
         id="path22" />
      <path
         d="m 17.958593,125.08176 v 12.65039 h -0.992187 v -12.65039 z m 13.394531,7.09414 q -0.595312,0.34727 -1.389062,0.59532 -0.595313,0.19843 -0.942578,0.5457 -0.248047,0.24805 -0.248047,0.69453 0,0.4961 0.248047,0.74414 0.248046,0.24805 0.79375,0.24805 0.892968,0 1.53789,-1.0418 z m 0,2.97657 q -0.74414,0.74414 -1.835547,0.74414 -0.892968,0 -1.438672,-0.54571 -0.496093,-0.49609 -0.496093,-1.24023 0,-0.79375 0.545703,-1.33945 0.496094,-0.4961 1.141015,-0.69453 1.686719,-0.54571 1.835547,-0.74414 0.248047,-0.29766 0.248047,-0.59532 0,-0.29765 -0.297656,-0.5457 -0.248047,-0.19844 -0.892969,-0.19844 -0.496094,0 -0.79375,0.29766 -0.396875,0.39687 -0.446484,1.0418 h -1.091406 q 0.04961,-0.99219 0.694531,-1.63711 0.595312,-0.59532 1.637109,-0.59532 1.190625,0 1.686719,0.4961 0.496094,0.49609 0.496094,1.24023 v 3.91914 q 0,0.59531 0.396875,1.14102 h -1.190625 q -0.198438,-0.19844 -0.198438,-0.74414 z m 3.621484,-4.96094 q 0.694531,-1.09141 1.785937,-1.09141 0.84336,0 1.438672,0.59532 0.892969,0.89296 0.892969,2.82773 0,1.78594 -0.892969,2.67891 -0.694531,0.69453 -1.488281,0.69453 -1.141015,0 -1.736328,-0.99219 v 2.72852 h -0.992187 v -8.53282 h 0.992187 z m 1.637109,-0.24805 q -0.496093,0 -1.041796,0.54571 -0.595313,0.59531 -0.595313,2.03398 0,1.38906 0.694531,2.08359 0.396875,0.39688 0.892969,0.39688 0.496094,0 0.892969,-0.39688 0.545703,-0.5457 0.545703,-2.1332 0,-1.5875 -0.545703,-2.1332 -0.396875,-0.39688 -0.84336,-0.39688 z m 4.712891,0.24805 q 0.694532,-1.09141 1.785938,-1.09141 0.843359,0 1.438672,0.59532 0.892968,0.89296 0.892968,2.82773 0,1.78594 -0.892968,2.67891 -0.694532,0.69453 -1.488282,0.69453 -1.141015,0 -1.736328,-0.99219 v 2.72852 h -0.992187 v -8.53282 h 0.992187 z m 1.63711,-0.24805 q -0.496094,0 -1.041797,0.54571 -0.595313,0.59531 -0.595313,2.03398 0,1.38906 0.694532,2.08359 0.396875,0.39688 0.892968,0.39688 0.496094,0 0.892969,-0.39688 0.545703,-0.5457 0.545703,-2.1332 0,-1.5875 -0.545703,-2.1332 -0.396875,-0.39688 -0.843359,-0.39688 z m 6.746875,5.95313 h -0.992187 v -9.67383 h 0.992187 z m 8.383983,-2.33164 q -0.148828,1.0914 -0.744141,1.68672 -0.644922,0.64492 -1.637109,0.64492 -1.091406,0 -1.736328,-0.64492 -0.942578,-0.94258 -0.942578,-2.72852 0,-1.83555 0.843359,-2.67891 0.744141,-0.74414 1.785938,-0.74414 0.843359,0 1.53789,0.59532 0.892969,0.74414 0.84336,2.82773 h -3.919141 q 0,1.63711 0.595312,2.08359 0.347266,0.34727 0.992188,0.34727 0.545703,0 0.892969,-0.34727 0.297656,-0.29765 0.347265,-1.04179 z m -1.190625,-1.83555 q 0.04961,-0.99219 -0.446484,-1.43867 -0.446485,-0.39688 -0.892969,-0.34727 -0.496094,0.0496 -0.942578,0.4961 -0.396875,0.39687 -0.496094,1.28984 z m 18.20664,-6.64766 v 12.65039 h -0.992188 v -12.65039 z m 14.684376,9.87227 v 0.94258 H 84.73281 v -0.79375 q 1.141016,-2.13321 2.827735,-4.06797 0.942578,-1.09141 0.942578,-2.28203 0,-0.84336 -0.446485,-1.28985 -0.297656,-0.29765 -0.79375,-0.29765 -0.396875,0 -0.79375,0.39687 -0.446484,0.44649 -0.446484,1.83555 h -1.091406 q 0.04961,-1.78594 0.843359,-2.57969 0.595313,-0.59531 1.5875,-0.59531 0.942578,0 1.5875,0.64492 0.694531,0.69453 0.694531,1.93477 0,1.43867 -1.339453,2.97656 -1.438672,1.63711 -2.38125,3.175 z m 1.091404,-3.91914 q 0,-2.92695 1.190625,-4.11758 0.694532,-0.69453 1.537891,-0.69453 0.843359,0 1.537891,0.69453 1.190625,1.19063 1.190625,4.11758 0,2.97656 -1.190625,4.16719 -0.694532,0.69453 -1.537891,0.69453 -0.843359,0 -1.537891,-0.69453 -1.190625,-1.19063 -1.190625,-4.16719 z m 4.316016,0 q 0,-2.6293 -0.942578,-3.57188 -0.297656,-0.29765 -0.644922,-0.29765 -0.347266,0 -0.644922,0.29765 -0.942578,0.99219 -0.942578,3.57188 0,2.67891 0.942578,3.62148 0.297656,0.29766 0.644922,0.29766 0.347266,0 0.644922,-0.29766 0.942578,-0.94257 0.942578,-3.62148 z m 2.033983,0 q 0,-2.92695 1.190625,-4.11758 0.694531,-0.69453 1.53789,-0.69453 0.843355,0 1.537895,0.69453 1.19062,1.19063 1.19062,4.11758 0,2.97656 -1.19062,4.16719 -0.69454,0.69453 -1.537895,0.69453 -0.843359,0 -1.53789,-0.69453 -1.190625,-1.19063 -1.190625,-4.16719 z m 4.31602,0 q 0,-2.6293 -0.94258,-3.57188 -0.29766,-0.29765 -0.644925,-0.29765 -0.347265,0 -0.644921,0.29765 -0.942579,0.99219 -0.942579,3.57188 0,2.67891 0.942579,3.62148 0.297656,0.29766 0.644921,0.29766 0.347265,0 0.644925,-0.29766 0.94258,-0.94257 0.94258,-3.62148 z m 24.3582,-5.95313 v 12.65039 h -0.99219 v -12.65039 z m 11.36055,5.45704 q 1.09141,-1.68672 2.67891,-1.43868 v 1.19063 q -1.83555,-0.34727 -2.67891,1.93476 v 3.6711 h -0.99219 v -6.79649 h 0.99219 z m 9.72344,3.02617 q -0.14883,1.0914 -0.74414,1.68672 -0.64493,0.64492 -1.63711,0.64492 -1.09141,0 -1.73633,-0.64492 -0.94258,-0.94258 -0.94258,-2.72852 0,-1.83555 0.84336,-2.67891 0.74414,-0.74414 1.78594,-0.74414 0.84336,0 1.53789,0.59532 0.89297,0.74414 0.84336,2.82773 h -3.91914 q 0,1.63711 0.59531,2.08359 0.34727,0.34727 0.99219,0.34727 0.5457,0 0.89297,-0.34727 0.29765,-0.29765 0.34726,-1.04179 z m -1.19063,-1.83555 q 0.0496,-0.99219 -0.44648,-1.43867 -0.44649,-0.39688 -0.89297,-0.34727 -0.49609,0.0496 -0.94258,0.4961 -0.39687,0.39687 -0.49609,1.28984 z m 6.3996,3.175 q -0.79375,0.99219 -1.78593,0.99219 -0.74415,0 -1.43868,-0.69453 -0.84336,-0.84336 -0.84336,-2.82774 0,-1.63711 0.94258,-2.57969 0.69453,-0.69453 1.53789,-0.69453 0.89297,0 1.5875,0.74414 v -3.62148 h 0.99219 v 9.67383 h -0.99219 z m -1.48828,-4.91133 q -0.44648,0 -0.84336,0.39688 -0.64492,0.64492 -0.64492,2.08359 0,1.63711 0.5457,2.18281 0.34727,0.34727 0.89297,0.34727 0.44649,0 0.89297,-0.44649 0.64492,-0.64492 0.64492,-2.18281 0,-1.38906 -0.64492,-2.03398 -0.34726,-0.34727 -0.84336,-0.34727 z m 32.34531,-4.91133 v 12.65039 h -0.99218 v -12.65039 z"
         id="path23" />
      <path
         d="m 17.958593,140.95676 v 12.65039 h -0.992187 v -12.65039 z m 10.616406,7.73907 q -0.595312,-0.54571 -0.595312,-1.48829 0,-1.0914 0.595312,-1.68671 0.545703,-0.54571 1.389063,-0.54571 0.843359,0 1.339453,0.4961 0.74414,-0.59532 1.637109,-0.4961 v 0.94258 q -0.694531,-0.19844 -1.339453,0 0.347266,0.39688 0.347266,1.28984 0,0.94258 -0.595313,1.5379 -0.545703,0.5457 -1.389062,0.5457 -0.446485,0 -0.84336,-0.19844 -0.446484,0.24805 -0.446484,0.5457 0,0.19844 0.198437,0.39688 0.248047,0.24805 1.389063,0.24805 1.537891,0 2.033984,0.49609 0.446485,0.44648 0.446485,0.99219 0,0.64492 -0.446485,1.0914 -0.595312,0.59532 -2.133203,0.59532 -1.637109,0 -2.232422,-0.59532 -0.396875,-0.39687 -0.396875,-0.84336 0,-0.64492 0.892969,-1.19062 -0.644922,-0.34727 -0.644922,-0.99219 0,-0.64492 0.79375,-1.14101 z m 0.545703,2.38125 q -0.694531,0.39687 -0.694531,0.84336 0,0.19843 0.248047,0.44648 0.396875,0.39687 1.537891,0.39687 0.992187,0 1.339453,-0.34726 0.248047,-0.24805 0.248047,-0.5457 0,-0.24805 -0.198438,-0.44649 -0.248047,-0.24805 -1.141016,-0.24805 -0.446484,0 -1.339453,-0.0992 z m 0.84336,-5.2586 q -0.396875,0 -0.694532,0.29766 -0.297656,0.29765 -0.297656,1.0914 0,0.64493 0.297656,0.94258 0.297657,0.29766 0.694532,0.29766 0.396875,0 0.694531,-0.29766 0.297656,-0.29765 0.297656,-0.94258 0,-0.79375 -0.297656,-1.0914 -0.297656,-0.29766 -0.694531,-0.29766 z m 5.705077,0.59531 q 1.091406,-1.68671 2.678906,-1.43867 v 1.19063 q -1.835546,-0.34727 -2.678906,1.93476 v 3.6711 h -0.992187 v -6.79649 h 0.992187 z m 8.383985,1.63711 q -0.595313,0.34727 -1.389062,0.59532 -0.595313,0.19843 -0.942579,0.5457 -0.248046,0.24805 -0.248046,0.69453 0,0.49609 0.248046,0.74414 0.248047,0.24805 0.79375,0.24805 0.892969,0 1.537891,-1.0418 z m 0,2.97657 q -0.744141,0.74414 -1.835547,0.74414 -0.892969,0 -1.438672,-0.54571 -0.496093,-0.49609 -0.496093,-1.24023 0,-0.79375 0.545703,-1.33945 0.496093,-0.4961 1.141015,-0.69453 1.686719,-0.54571 1.835547,-0.74415 0.248047,-0.29765 0.248047,-0.59531 0,-0.29765 -0.297656,-0.5457 -0.248047,-0.19844 -0.892969,-0.19844 -0.496094,0 -0.79375,0.29766 -0.396875,0.39687 -0.446484,1.04179 h -1.091407 q 0.04961,-0.99218 0.694532,-1.6371 0.595312,-0.59532 1.637109,-0.59532 1.190625,0 1.686719,0.4961 0.496093,0.49609 0.496093,1.24023 v 3.91914 q 0,0.59531 0.396875,1.14102 h -1.190625 q -0.198437,-0.19844 -0.198437,-0.74414 z m 3.621485,-4.96094 q 0.694531,-1.09141 1.785937,-1.09141 0.84336,0 1.438672,0.59532 0.892969,0.89296 0.892969,2.82773 0,1.78594 -0.892969,2.67891 -0.694531,0.69453 -1.488281,0.69453 -1.141016,0 -1.736328,-0.99219 v 2.72852 h -0.992188 v -8.53282 h 0.992188 z m 1.637109,-0.24805 q -0.496094,0 -1.041797,0.54571 -0.595312,0.59531 -0.595312,2.03398 0,1.38906 0.694531,2.08359 0.396875,0.39688 0.892969,0.39688 0.496093,0 0.892968,-0.39688 0.545704,-0.5457 0.545704,-2.1332 0,-1.5875 -0.545704,-2.1332 -0.396875,-0.39688 -0.843359,-0.39688 z m 8.780858,3.62149 q -0.148828,1.0914 -0.744141,1.68672 -0.644922,0.64492 -1.637109,0.64492 -1.091406,0 -1.736328,-0.64492 -0.942578,-0.94258 -0.942578,-2.72852 0,-1.83555 0.843359,-2.67891 0.744141,-0.74414 1.785938,-0.74414 0.843359,0 1.53789,0.59532 0.892969,0.74414 0.84336,2.82773 h -3.919141 q 0,1.63711 0.595312,2.08359 0.347266,0.34727 0.992188,0.34727 0.545703,0 0.892969,-0.34727 0.297656,-0.29765 0.347265,-1.04179 z m -1.190625,-1.83555 q 0.04961,-0.99219 -0.446484,-1.43867 -0.446485,-0.39688 -0.892969,-0.34727 -0.496094,0.0496 -0.942578,0.4961 -0.396875,0.39687 -0.496094,1.28984 z m 18.20664,-6.64766 v 12.65039 h -0.992188 v -12.65039 z m 11.757422,10.81485 v -3.86953 -3.81993 h -1.488281 v -0.59531 q 1.736328,0 2.033985,-1.38906 h 0.595312 v 9.67383 z m 9.276952,-0.94258 v 0.94258 h -5.060156 v -0.79375 q 1.141015,-2.13321 2.827734,-4.06797 0.942578,-1.09141 0.942578,-2.28203 0,-0.84336 -0.446484,-1.28985 -0.297656,-0.29765 -0.79375,-0.29765 -0.396875,0 -0.79375,0.39687 -0.446484,0.44649 -0.446484,1.83555 h -1.091407 q 0.04961,-1.78594 0.84336,-2.57969 0.595312,-0.59531 1.5875,-0.59531 0.942578,0 1.5875,0.64492 0.694531,0.69453 0.694531,1.93477 0,1.43867 -1.339453,2.97656 -1.438672,1.63711 -2.38125,3.175 z m 1.091405,-3.91914 q 0,-2.92695 1.190625,-4.11758 0.694531,-0.69453 1.53789,-0.69453 0.843355,0 1.537895,0.69453 1.19062,1.19063 1.19062,4.11758 0,2.97656 -1.19062,4.16719 -0.69454,0.69453 -1.537895,0.69453 -0.843359,0 -1.53789,-0.69453 -1.190625,-1.19063 -1.190625,-4.16719 z m 4.31602,0 q 0,-2.6293 -0.94258,-3.57188 -0.29766,-0.29765 -0.644925,-0.29765 -0.347265,0 -0.644921,0.29765 -0.942579,0.99219 -0.942579,3.57188 0,2.6789 0.942579,3.62148 0.297656,0.29766 0.644921,0.29766 0.347265,0 0.644925,-0.29766 0.94258,-0.94258 0.94258,-3.62148 z m 2.03399,0 q 0,-2.92695 1.19062,-4.11758 0.69453,-0.69453 1.53789,-0.69453 0.84336,0 1.53789,0.69453 1.19063,1.19063 1.19063,4.11758 0,2.97656 -1.19063,4.16719 -0.69453,0.69453 -1.53789,0.69453 -0.84336,0 -1.53789,-0.69453 -1.19062,-1.19063 -1.19062,-4.16719 z m 4.31601,0 q 0,-2.6293 -0.94258,-3.57188 -0.29765,-0.29765 -0.64492,-0.29765 -0.34726,0 -0.64492,0.29765 -0.94258,0.99219 -0.94258,3.57188 0,2.6789 0.94258,3.62148 0.29766,0.29766 0.64492,0.29766 0.34727,0 0.64492,-0.29766 0.94258,-0.94258 0.94258,-3.62148 z m 18.0082,-5.95313 v 12.65039 h -0.99219 v -12.65039 z m 10.66602,5.10977 q 0.69453,-1.09141 1.78594,-1.09141 0.84336,0 1.43867,0.59532 0.89297,0.89296 0.89297,2.82773 0,1.78594 -0.89297,2.67891 -0.69453,0.69453 -1.48828,0.69453 -1.14102,0 -1.73633,-0.99219 v 2.72852 h -0.99219 v -8.53282 h 0.99219 z m 1.63711,-0.24805 q -0.49609,0 -1.0418,0.54571 -0.59531,0.59531 -0.59531,2.03398 0,1.38906 0.69453,2.08359 0.39688,0.39688 0.89297,0.39688 0.49609,0 0.89297,-0.39688 0.5457,-0.5457 0.5457,-2.1332 0,-1.5875 -0.5457,-2.1332 -0.39688,-0.39688 -0.84336,-0.39688 z m 7.59023,4.96094 q -0.79375,0.99219 -2.03398,0.99219 -0.84336,0 -1.28985,-0.44649 -0.49609,-0.49609 -0.49609,-1.24023 v -5.10977 h 0.99219 v 4.86172 q 0,0.59531 0.24805,0.84336 0.24804,0.24805 0.84335,0.24805 0.69454,0 1.19063,-0.4961 0.5457,-0.5457 0.5457,-1.38906 v -4.06797 h 0.99219 v 6.79649 h -0.99219 z m 4.16718,-4.36563 q 1.09141,-1.68671 2.67891,-1.43867 v 1.19063 q -1.83555,-0.34727 -2.67891,1.93476 v 3.6711 h -0.99219 v -6.79649 h 0.99219 z m 5.65548,-0.34726 q 0.69453,-1.09141 1.78593,-1.09141 0.84336,0 1.43868,0.59532 0.89296,0.89296 0.89296,2.82773 0,1.78594 -0.89296,2.67891 -0.69454,0.69453 -1.48829,0.69453 -1.14101,0 -1.73632,-0.99219 v 2.72852 h -0.99219 v -8.53282 h 0.99219 z m 1.63711,-0.24805 q -0.4961,0 -1.0418,0.54571 -0.59531,0.59531 -0.59531,2.03398 0,1.38906 0.69453,2.08359 0.39687,0.39688 0.89297,0.39688 0.49609,0 0.89296,-0.39688 0.54571,-0.5457 0.54571,-2.1332 0,-1.5875 -0.54571,-2.1332 -0.39687,-0.39688 -0.84335,-0.39688 z m 6.74688,5.95313 h -0.99219 v -9.67383 h 0.99219 z m 8.38397,-2.33164 q -0.14883,1.0914 -0.74414,1.68672 -0.64492,0.64492 -1.63711,0.64492 -1.0914,0 -1.73633,-0.64492 -0.94257,-0.94258 -0.94257,-2.72852 0,-1.83555 0.84335,-2.67891 0.74415,-0.74414 1.78594,-0.74414 0.84336,0 1.53789,0.59532 0.89297,0.74414 0.84336,2.82773 h -3.91914 q 0,1.63711 0.59531,2.08359 0.34727,0.34727 0.99219,0.34727 0.5457,0 0.89297,-0.34727 0.29766,-0.29765 0.34727,-1.04179 z m -1.19062,-1.83555 q 0.0496,-0.99219 -0.44649,-1.43867 -0.44648,-0.39688 -0.89297,-0.34727 -0.49609,0.0496 -0.94257,0.4961 -0.39688,0.39687 -0.4961,1.28984 z m 11.85663,-6.64766 v 12.65039 h -0.99218 v -12.65039 z"
         id="path24" />
      <path
         d="m 17.958593,156.83176 v 12.65039 h -0.992187 v -12.65039 z m 10.666016,5.10977 q 0.79375,-1.09141 1.835546,-1.09141 0.79375,0 1.389063,0.59532 0.79375,0.79375 0.79375,2.6789 0,1.98438 -0.79375,2.77813 -0.744141,0.74414 -1.537891,0.74414 -0.942578,0 -1.686718,-0.84336 v 0.84336 h -0.992188 v -9.67383 h 0.992188 z m 0,2.48047 q 0,1.43867 0.496093,1.93476 0.446485,0.44649 0.942578,0.44649 0.595313,0 0.942579,-0.34727 0.644921,-0.64492 0.644921,-2.23242 0,-1.53789 -0.595312,-2.1332 -0.347266,-0.34727 -0.892969,-0.34727 -0.545703,0 -1.041797,0.4961 -0.496093,0.49609 -0.496093,2.18281 z m 9.078515,-0.4961 q -0.595313,0.34727 -1.389063,0.59532 -0.595312,0.19843 -0.942578,0.5457 -0.248047,0.24805 -0.248047,0.69453 0,0.49609 0.248047,0.74414 0.248047,0.24805 0.79375,0.24805 0.892969,0 1.537891,-1.0418 z m 0,2.97657 q -0.744141,0.74414 -1.835547,0.74414 -0.892969,0 -1.438672,-0.54571 -0.496094,-0.49609 -0.496094,-1.24023 0,-0.79375 0.545703,-1.33945 0.496094,-0.4961 1.141016,-0.69453 1.686719,-0.54571 1.835547,-0.74415 0.248047,-0.29765 0.248047,-0.59531 0,-0.29765 -0.297657,-0.5457 -0.248047,-0.19844 -0.892968,-0.19844 -0.496094,0 -0.79375,0.29766 -0.396875,0.39687 -0.446485,1.04179 h -1.091406 q 0.04961,-0.99218 0.694531,-1.6371 0.595313,-0.59532 1.63711,-0.59532 1.190625,0 1.686718,0.4961 0.496094,0.49609 0.496094,1.24023 v 3.91914 q 0,0.59531 0.396875,1.14102 h -1.190625 q -0.198437,-0.19844 -0.198437,-0.74414 z m 6.598047,-4.11758 q 0,-0.44649 -0.297656,-0.74414 -0.297657,-0.29766 -0.79375,-0.29766 -0.545703,0 -1.091407,0.5457 -0.694531,0.69454 -0.694531,1.78594 v 3.57188 H 40.43164 v -6.79649 h 0.992187 v 1.28985 q 0.248047,-0.34727 0.595313,-0.69453 0.595312,-0.59532 1.488281,-0.59532 0.79375,0 1.289844,0.4961 0.496093,0.49609 0.496093,1.33945 v 4.96094 h -0.992187 z m 6.101953,1.14101 q -0.595312,0.34727 -1.389062,0.59532 -0.595313,0.19843 -0.942578,0.5457 -0.248047,0.24805 -0.248047,0.69453 0,0.49609 0.248047,0.74414 0.248047,0.24805 0.79375,0.24805 0.892968,0 1.53789,-1.0418 z m 0,2.97657 q -0.74414,0.74414 -1.835546,0.74414 -0.892969,0 -1.438672,-0.54571 -0.496094,-0.49609 -0.496094,-1.24023 0,-0.79375 0.545703,-1.33945 0.496094,-0.4961 1.141016,-0.69453 1.686718,-0.54571 1.835546,-0.74415 0.248047,-0.29765 0.248047,-0.59531 0,-0.29765 -0.297656,-0.5457 -0.248047,-0.19844 -0.892969,-0.19844 -0.496093,0 -0.79375,0.29766 -0.396875,0.39687 -0.446484,1.04179 h -1.091406 q 0.04961,-0.99218 0.694531,-1.6371 0.595313,-0.59532 1.637109,-0.59532 1.190625,0 1.686719,0.4961 0.496094,0.49609 0.496094,1.24023 v 3.91914 q 0,0.59531 0.396875,1.14102 h -1.190625 q -0.198438,-0.19844 -0.198438,-0.74414 z m 6.598046,-4.11758 q 0,-0.44649 -0.297657,-0.74414 -0.297656,-0.29766 -0.79375,-0.29766 -0.545703,0 -1.091406,0.5457 -0.694531,0.69454 -0.694531,1.78594 v 3.57188 h -0.992187 v -6.79649 h 0.992187 v 1.28985 q 0.248047,-0.34727 0.595312,-0.69453 0.595313,-0.59532 1.488282,-0.59532 0.79375,0 1.289843,0.4961 0.496094,0.49609 0.496094,1.33945 v 4.96094 H 57.00117 Z m 6.101955,1.14101 q -0.595312,0.34727 -1.389062,0.59532 -0.595313,0.19843 -0.942578,0.5457 -0.248047,0.24805 -0.248047,0.69453 0,0.49609 0.248047,0.74414 0.248046,0.24805 0.79375,0.24805 0.892968,0 1.53789,-1.0418 z m 0,2.97657 q -0.74414,0.74414 -1.835547,0.74414 -0.892968,0 -1.438672,-0.54571 -0.496093,-0.49609 -0.496093,-1.24023 0,-0.79375 0.545703,-1.33945 0.496094,-0.4961 1.141015,-0.69453 1.686719,-0.54571 1.835547,-0.74415 0.248047,-0.29765 0.248047,-0.59531 0,-0.29765 -0.297656,-0.5457 -0.248047,-0.19844 -0.892969,-0.19844 -0.496094,0 -0.79375,0.29766 -0.396875,0.39687 -0.446484,1.04179 H 59.58086 q 0.04961,-0.99218 0.694531,-1.6371 0.595312,-0.59532 1.637109,-0.59532 1.190625,0 1.686719,0.4961 0.496094,0.49609 0.496094,1.24023 v 3.91914 q 0,0.59531 0.396875,1.14102 h -1.190625 q -0.198438,-0.19844 -0.198438,-0.74414 z m 12.005466,-10.07071 v 12.65039 h -0.992188 v -12.65039 z m 11.757422,10.81485 v -3.86953 -3.81993 h -1.488281 v -0.59531 q 1.736328,0 2.033985,-1.38906 h 0.595312 v 9.67383 z m 8.036718,-7.44141 q 0,-0.74414 -0.347266,-1.09141 -0.198437,-0.19843 -0.496094,-0.19843 -0.396875,0 -0.694531,0.29765 -0.843359,0.84336 -1.041797,3.32383 0.694531,-1.14101 1.686719,-1.14101 0.744141,0 1.339453,0.59531 0.79375,0.79375 0.79375,2.43086 0,1.78594 -0.843359,2.62929 -0.595313,0.59532 -1.537891,0.59532 -0.843359,0 -1.537891,-0.69453 -1.041796,-1.0418 -1.041796,-4.01836 0,-2.92696 1.438671,-4.36563 0.595313,-0.59531 1.488282,-0.59531 0.74414,0 1.190625,0.44648 0.694531,0.69453 0.74414,1.78594 z m -1.091407,2.08359 q -0.446484,0 -0.79375,0.34727 -0.595312,0.59531 -0.595312,1.5875 0,1.53789 0.694531,2.23242 0.297656,0.29766 0.694531,0.29766 0.396875,0 0.744141,-0.34727 0.446484,-0.44648 0.446484,-1.98437 0,-1.33946 -0.496093,-1.83555 -0.297657,-0.29766 -0.694532,-0.29766 z m 3.423046,0.4961 q 0,-2.92695 1.190625,-4.11758 0.694531,-0.69453 1.53789,-0.69453 0.843355,0 1.537895,0.69453 1.19062,1.19063 1.19062,4.11758 0,2.97656 -1.19062,4.16719 -0.69454,0.69453 -1.537895,0.69453 -0.843359,0 -1.53789,-0.69453 -1.190625,-1.19063 -1.190625,-4.16719 z m 4.31602,0 q 0,-2.6293 -0.94258,-3.57188 -0.29766,-0.29765 -0.644925,-0.29765 -0.347265,0 -0.644921,0.29765 -0.942579,0.99219 -0.942579,3.57188 0,2.6789 0.942579,3.62148 0.297656,0.29766 0.644921,0.29766 0.347265,0 0.644925,-0.29766 0.94258,-0.94258 0.94258,-3.62148 z m 24.3582,-5.95313 v 12.65039 h -0.99219 v -12.65039 z m 9.4754,4.01836 h 1.0914 l 1.68672,4.66328 h 0.0496 l 1.43867,-4.66328 h 1.09141 l -2.28203,7.14375 q -0.44649,1.38907 -1.5875,1.38907 -0.54571,0 -0.89297,-0.14883 v -0.99219 q 0.39687,0.19844 0.74414,0.19844 0.74414,0 1.0418,-1.19063 z m 11.60859,4.46485 q -0.14883,1.0914 -0.74414,1.68672 -0.64493,0.64492 -1.63711,0.64492 -1.09141,0 -1.73633,-0.64492 -0.94258,-0.94258 -0.94258,-2.72852 0,-1.83555 0.84336,-2.67891 0.74414,-0.74414 1.78594,-0.74414 0.84336,0 1.53789,0.59532 0.89297,0.74414 0.84336,2.82773 h -3.91914 q 0,1.63711 0.59531,2.08359 0.34727,0.34727 0.99219,0.34727 0.5457,0 0.89297,-0.34727 0.29765,-0.29765 0.34726,-1.04179 z m -1.19063,-1.83555 q 0.0496,-0.99219 -0.44648,-1.43867 -0.44649,-0.39688 -0.89297,-0.34727 -0.49609,0.0496 -0.94258,0.4961 -0.39687,0.39687 -0.49609,1.28984 z m 5.50663,4.16719 h -0.99218 v -9.67383 h 0.99218 z m 6.35001,0 h -0.99219 v -9.67383 h 0.99219 z m 3.96876,-6.00274 q 0.79375,-0.79375 1.88515,-0.79375 1.0418,0 1.83555,0.79375 0.79375,0.79375 0.79375,2.6293 0,1.78594 -0.79375,2.57969 -0.79375,0.79375 -1.83555,0.79375 -1.0914,0 -1.88515,-0.79375 -0.79375,-0.79375 -0.79375,-2.57969 0,-1.83555 0.79375,-2.6293 z m 1.88515,0.0992 q -0.59531,0 -1.04179,0.44649 -0.54571,0.5457 -0.54571,2.08359 0,1.48828 0.54571,2.03398 0.44648,0.44649 1.04179,0.44649 0.54571,0 0.99219,-0.44649 0.5457,-0.5457 0.5457,-2.03398 0,-1.53789 -0.5457,-2.08359 -0.44648,-0.44649 -0.99219,-0.44649 z m 4.56406,5.90352 -1.28985,-6.79649 h 1.0418 l 0.69453,4.01836 h 0.0992 l 0.64492,-4.01836 h 1.09141 l 0.64492,4.01836 h 0.0992 l 0.69453,-4.01836 h 1.0418 l -1.28985,6.79649 h -0.94258 l -0.74414,-4.61367 h -0.0992 l -0.74414,4.61367 z m 14.98202,-10.81485 v 12.65039 h -0.99218 v -12.65039 z"
         id="path25" />
      <path
         d="m 17.958593,172.70676 v 12.65039 h -0.992187 v -12.65039 z m 15.031641,10.81485 h -0.992188 v -5.10977 q 0,-0.39687 -0.198437,-0.59531 -0.148829,-0.14883 -0.396875,-0.14883 -0.248047,0 -0.496094,0.24805 -0.347266,0.34726 -0.347266,1.0914 v 4.51446 h -0.992187 v -5.15938 q 0,-0.39687 -0.148828,-0.5457 -0.148829,-0.14883 -0.347266,-0.14883 -0.297656,0 -0.545703,0.24805 -0.347266,0.34726 -0.347266,1.0914 v 4.51446 h -0.992187 v -6.79649 h 0.992187 v 0.84336 q 0.496094,-0.84336 1.289844,-0.84336 0.79375,0 1.041797,0.84336 0.496094,-0.84336 1.289844,-0.84336 0.595312,0 0.892968,0.29766 0.297657,0.29765 0.297657,0.94258 z m 6.052343,-2.33164 q -0.148828,1.0914 -0.744141,1.68671 -0.644922,0.64493 -1.637109,0.64493 -1.091406,0 -1.736328,-0.64493 -0.942578,-0.94257 -0.942578,-2.72851 0,-1.83555 0.843359,-2.67891 0.744141,-0.74414 1.785937,-0.74414 0.84336,0 1.537891,0.59531 0.892969,0.74415 0.843359,2.82774 h -3.91914 q 0,1.63711 0.595312,2.08359 0.347266,0.34727 0.992188,0.34727 0.545703,0 0.892968,-0.34727 0.297657,-0.29765 0.347266,-1.04179 z m -1.190625,-1.83555 q 0.04961,-0.99219 -0.446485,-1.43867 -0.446484,-0.39688 -0.892968,-0.34727 -0.496094,0.0496 -0.942578,0.4961 -0.396875,0.39687 -0.496094,1.28984 z m 5.506641,4.16719 h -0.992188 v -9.67383 h 0.992188 z m 3.96875,-6.00274 q 0.79375,-0.79375 1.885156,-0.79375 1.041797,0 1.835547,0.79375 0.79375,0.79375 0.79375,2.6293 0,1.78594 -0.79375,2.57969 -0.79375,0.79375 -1.835547,0.79375 -1.091406,0 -1.885156,-0.79375 -0.79375,-0.79375 -0.79375,-2.57969 0,-1.83555 0.79375,-2.6293 z m 1.885156,0.0992 q -0.595312,0 -1.041796,0.44649 -0.545704,0.5457 -0.545704,2.08359 0,1.48828 0.545704,2.03398 0.446484,0.44649 1.041796,0.44649 0.545703,0 0.992188,-0.44649 0.545703,-0.5457 0.545703,-2.03398 0,-1.53789 -0.545703,-2.08359 -0.446485,-0.44649 -0.992188,-0.44649 z m 7.788671,1.0418 q 0,-0.44649 -0.297657,-0.74414 -0.297656,-0.29766 -0.79375,-0.29766 -0.545703,0 -1.091406,0.5457 -0.694531,0.69454 -0.694531,1.78594 v 3.57188 h -0.992187 v -6.79649 h 0.992187 v 1.28985 q 0.248047,-0.34727 0.595312,-0.69454 0.595313,-0.59531 1.488282,-0.59531 0.79375,0 1.289843,0.4961 0.496094,0.49609 0.496094,1.33945 v 4.96094 H 57.00117 Z m 18.107421,-5.95313 v 12.65039 h -0.992188 v -12.65039 z m 14.684376,9.87227 v 0.94258 H 84.73281 v -0.79375 q 1.141016,-2.13321 2.827735,-4.06797 0.942578,-1.09141 0.942578,-2.28203 0,-0.84336 -0.446485,-1.28985 -0.297656,-0.29765 -0.79375,-0.29765 -0.396875,0 -0.79375,0.39687 -0.446484,0.44649 -0.446484,1.83555 h -1.091406 q 0.04961,-1.78594 0.843359,-2.57969 0.595313,-0.59531 1.5875,-0.59531 0.942578,0 1.5875,0.64492 0.694531,0.69453 0.694531,1.93477 0,1.43867 -1.339453,2.97656 -1.438672,1.63711 -2.38125,3.175 z m 1.091404,-3.91914 q 0,-2.92695 1.190625,-4.11758 0.694532,-0.69453 1.537891,-0.69453 0.843359,0 1.537891,0.69453 1.190625,1.19063 1.190625,4.11758 0,2.97656 -1.190625,4.16719 -0.694532,0.69453 -1.537891,0.69453 -0.843359,0 -1.537891,-0.69453 -1.190625,-1.19063 -1.190625,-4.16719 z m 4.316016,0 q 0,-2.6293 -0.942578,-3.57188 -0.297656,-0.29765 -0.644922,-0.29765 -0.347266,0 -0.644922,0.29765 -0.942578,0.99219 -0.942578,3.57188 0,2.6789 0.942578,3.62148 0.297656,0.29766 0.644922,0.29766 0.347266,0 0.644922,-0.29766 0.942578,-0.94258 0.942578,-3.62148 z m 2.033983,0 q 0,-2.92695 1.190625,-4.11758 0.694531,-0.69453 1.53789,-0.69453 0.843355,0 1.537895,0.69453 1.19062,1.19063 1.19062,4.11758 0,2.97656 -1.19062,4.16719 -0.69454,0.69453 -1.537895,0.69453 -0.843359,0 -1.53789,-0.69453 -1.190625,-1.19063 -1.190625,-4.16719 z m 4.31602,0 q 0,-2.6293 -0.94258,-3.57188 -0.29766,-0.29765 -0.644925,-0.29765 -0.347265,0 -0.644921,0.29765 -0.942579,0.99219 -0.942579,3.57188 0,2.6789 0.942579,3.62148 0.297656,0.29766 0.644921,0.29766 0.347265,0 0.644925,-0.29766 0.94258,-0.94258 0.94258,-3.62148 z m 2.03399,0 q 0,-2.92695 1.19062,-4.11758 0.69453,-0.69453 1.53789,-0.69453 0.84336,0 1.53789,0.69453 1.19063,1.19063 1.19063,4.11758 0,2.97656 -1.19063,4.16719 -0.69453,0.69453 -1.53789,0.69453 -0.84336,0 -1.53789,-0.69453 -1.19062,-1.19063 -1.19062,-4.16719 z m 4.31601,0 q 0,-2.6293 -0.94258,-3.57188 -0.29765,-0.29765 -0.64492,-0.29765 -0.34726,0 -0.64492,0.29765 -0.94258,0.99219 -0.94258,3.57188 0,2.6789 0.94258,3.62148 0.29766,0.29766 0.64492,0.29766 0.34727,0 0.64492,-0.29766 0.94258,-0.94258 0.94258,-3.62148 z m 18.0082,-5.95313 v 12.65039 h -0.99219 v -12.65039 z m 10.61641,7.73907 q -0.59531,-0.54571 -0.59531,-1.48829 0,-1.0914 0.59531,-1.68671 0.5457,-0.54571 1.38906,-0.54571 0.84336,0 1.33946,0.4961 0.74414,-0.59532 1.63711,-0.4961 v 0.94258 q -0.69454,-0.19844 -1.33946,0 0.34727,0.39688 0.34727,1.28984 0,0.94258 -0.59531,1.53789 -0.54571,0.54571 -1.38907,0.54571 -0.44648,0 -0.84336,-0.19844 -0.44648,0.24805 -0.44648,0.5457 0,0.19844 0.19844,0.39688 0.24804,0.24805 1.38906,0.24805 1.53789,0 2.03398,0.49609 0.44649,0.44648 0.44649,0.99219 0,0.64492 -0.44649,1.0914 -0.59531,0.59532 -2.1332,0.59532 -1.63711,0 -2.23242,-0.59532 -0.39688,-0.39687 -0.39688,-0.84336 0,-0.64492 0.89297,-1.19062 -0.64492,-0.34727 -0.64492,-0.99219 0,-0.64492 0.79375,-1.14101 z m 0.5457,2.38125 q -0.69453,0.39687 -0.69453,0.84335 0,0.19844 0.24805,0.44649 0.39687,0.39687 1.53789,0.39687 0.99219,0 1.33945,-0.34726 0.24805,-0.24805 0.24805,-0.5457 0,-0.24805 -0.19844,-0.44649 -0.24804,-0.24805 -1.14101,-0.24805 -0.44649,0 -1.33946,-0.0992 z m 0.84336,-5.2586 q -0.39687,0 -0.69453,0.29766 -0.29765,0.29765 -0.29765,1.0914 0,0.64493 0.29765,0.94258 0.29766,0.29766 0.69453,0.29766 0.39688,0 0.69453,-0.29766 0.29766,-0.29765 0.29766,-0.94258 0,-0.79375 -0.29766,-1.0914 -0.29765,-0.29766 -0.69453,-0.29766 z m 5.70508,0.59531 q 1.09141,-1.68671 2.67891,-1.43867 v 1.19063 q -1.83555,-0.34727 -2.67891,1.93476 v 3.6711 h -0.99219 v -6.79649 h 0.99219 z m 9.72343,3.02618 q -0.14883,1.0914 -0.74414,1.68671 -0.64492,0.64493 -1.63711,0.64493 -1.09141,0 -1.73633,-0.64493 -0.94258,-0.94257 -0.94258,-2.72851 0,-1.83555 0.84336,-2.67891 0.74414,-0.74414 1.78594,-0.74414 0.84336,0 1.53789,0.59531 0.89297,0.74415 0.84336,2.82774 h -3.91914 q 0,1.63711 0.59531,2.08359 0.34727,0.34727 0.99219,0.34727 0.5457,0 0.89297,-0.34727 0.29765,-0.29765 0.34726,-1.04179 z m -1.19063,-1.83555 q 0.0496,-0.99219 -0.44648,-1.43867 -0.44649,-0.39688 -0.89297,-0.34727 -0.49609,0.0496 -0.94258,0.4961 -0.39687,0.39687 -0.49609,1.28984 z m 7.54063,1.83555 q -0.14882,1.0914 -0.74414,1.68671 -0.64492,0.64493 -1.63711,0.64493 -1.0914,0 -1.73632,-0.64493 -0.94258,-0.94257 -0.94258,-2.72851 0,-1.83555 0.84336,-2.67891 0.74414,-0.74414 1.78594,-0.74414 0.84335,0 1.53789,0.59531 0.89296,0.74415 0.84336,2.82774 h -3.91915 q 0,1.63711 0.59532,2.08359 0.34726,0.34727 0.99218,0.34727 0.54571,0 0.89297,-0.34727 0.29766,-0.29765 0.34727,-1.04179 z m -1.19062,-1.83555 q 0.0496,-0.99219 -0.44648,-1.43867 -0.44649,-0.39688 -0.89297,-0.34727 -0.4961,0.0496 -0.94258,0.4961 -0.39688,0.39687 -0.4961,1.28984 z m 6.44922,-0.69453 q 0,-0.44649 -0.29765,-0.74414 -0.29766,-0.29766 -0.79375,-0.29766 -0.54571,0 -1.09141,0.5457 -0.69453,0.69454 -0.69453,1.78594 v 3.57188 h -0.99219 v -6.79649 h 0.99219 v 1.28985 q 0.24805,-0.34727 0.59531,-0.69454 0.59532,-0.59531 1.48828,-0.59531 0.79375,0 1.28985,0.4961 0.49609,0.49609 0.49609,1.33945 v 4.96094 h -0.99219 z m 18.10741,-5.95313 v 12.65039 h -0.99218 v -12.65039 z"
         id="path26" />
    </g>
    <path
       d="M 88.808211,54.395718 43.587837,106.80556 q -1.750543,1.61092 -4.990769,0.58018 -5.346376,-1.70073 -11.189603,-7.08216 Q 20.328172,93.783778 19.514975,88.444351 19.235184,86.52628 20.3273,85.38334 L 85.40746,17.274516 q 3.028138,-3.16906 8.959831,-1.417626 6.791389,1.957169 14.207799,8.787441 15.50702,14.281478 11.12591,22.846063 L 88.18162,109.88132 149.81609,75.225436 q 3.94018,-2.133758 9.8484,0.08441 6.55628,2.424326 13.74795,9.047622 8.65247,7.968651 10.51624,14.861649 1.19725,4.716423 -1.43375,7.469873 l -65.08016,68.10882 q -1.58853,1.66246 -5.20243,0.58059 -4.79761,-1.39067 -10.52847,-6.66861 -6.18034,-5.69189 -7.813978,-10.61488 -0.980179,-2.95378 0.50907,-4.51234 l 50.389378,-47.64935 -61.017997,32.68421 q -1.951815,0.93721 -5.003863,0.37278 -5.842789,-1.18121 -11.910756,-6.76961 -7.191663,-6.62329 -7.733183,-12.68922 -0.217062,-1.76263 0.375933,-3.26757 z"
       id="text21"
       style="font-size:234.758px;font-family:'UD Digi Kyokasho N-B';-inkscape-font-specification:'UD Digi Kyokasho N-B';opacity:0.748219;fill:#0000ff;stroke-width:0;stroke-linecap:round;stroke-linejoin:round"
       aria-label="M" />
  </g>
</svg>
